<svg width="41" height="35" viewBox="0 0 41 35" fill="none" xmlns="http://www.w3.org/2000/svg">
<g id="&#227;&#131;&#141;&#227;&#131;&#131;&#227;&#131;&#136;&#230;&#142;&#165;&#231;&#182;&#154;&#227;&#130;&#162;&#227;&#130;&#164;&#227;&#130;&#179;&#227;&#131;&#179;3 1">
<g id="Group">
<path id="Vector" d="M4.88914 29.785H35.3394C36.364 29.785 37.2021 29.0024 37.2021 28.0461V8.03719C37.2021 7.08041 36.364 6.29834 35.3394 6.29834H4.88914C3.86343 6.29834 3.02637 7.08041 3.02637 8.03719V28.0461C3.02637 29.0024 3.86343 29.785 4.88914 29.785ZM5.44755 8.55869H34.781V27.5237H5.44755V8.55869Z" fill="#4B4B4B"/>
<path id="Vector_2" d="M0 30.7847V31.2195C0 31.9848 0.670318 32.6112 1.48983 32.6112H38.2732C39.0938 32.6112 39.764 31.9848 39.764 31.2195V30.7847H0Z" fill="#4B4B4B"/>
<path id="Vector_3" d="M20.6954 23.355C20.5539 23.4626 20.4123 23.5465 20.2687 23.6105C20.1721 23.6202 20.0745 23.6274 19.9758 23.6326V22.5693C19.7421 22.3896 19.5052 22.2036 19.2682 22.012V23.6326C19.1706 23.6274 19.0719 23.6203 18.9753 23.6105C18.8327 23.5465 18.6912 23.4625 18.5497 23.355C18.0889 23.0051 17.6578 22.4146 17.3276 21.6535H18.8327C18.576 21.4398 18.3193 21.2191 18.0626 20.9927H17.0797C16.9623 20.6285 16.8679 20.2357 16.7955 19.8234C16.5169 19.5535 16.2448 19.2825 15.9815 19.012C16.0407 19.7158 16.1625 20.3832 16.3435 20.9927H14.5346C14.0277 20.2286 13.714 19.3429 13.6548 18.3913H15.3914C15.1863 18.1695 14.9866 17.9493 14.7934 17.73H13.6547C13.6789 17.3397 13.7479 16.9623 13.8544 16.5981C13.613 16.2918 13.3882 15.9901 13.1797 15.6946C12.8704 16.4281 12.6992 17.2256 12.6992 18.061C12.6992 21.631 15.7983 24.5249 19.6226 24.5254C20.5167 24.5254 21.3713 24.3645 22.1557 24.0762C21.7344 23.817 21.3 23.5297 20.859 23.2177C20.8052 23.2663 20.7503 23.313 20.6954 23.355ZM15.3946 22.0085C15.2729 21.8952 15.1577 21.7764 15.0479 21.6535H16.5728C16.6869 21.9434 16.8108 22.2185 16.9513 22.472C17.1158 22.7696 17.2979 23.04 17.4976 23.2798C16.7012 22.997 15.987 22.5611 15.3946 22.0085Z" fill="#4B4B4B"/>
<path id="Vector_4" d="M15.1023 14.4123C15.1966 14.3098 15.2921 14.2089 15.3951 14.1131C15.9887 13.5594 16.705 13.1226 17.5025 12.8399C17.1317 13.2844 16.8201 13.8366 16.5722 14.4676H15.1395C15.2909 14.6832 15.4544 14.904 15.6277 15.1283H16.3452C16.2793 15.3475 16.2245 15.576 16.1729 15.809C16.3638 16.0369 16.5613 16.2674 16.7686 16.4994C16.8432 16.0133 16.9474 15.5513 17.0835 15.1282H19.2688V17.7302H17.9238C18.1432 17.951 18.3659 18.1717 18.5963 18.3915H19.2687V19.0199C19.5035 19.2335 19.7404 19.443 19.9763 19.6474V18.3915H22.5927C22.5642 19.3406 22.4095 20.2261 22.1615 20.9929H21.6438C21.9838 21.2485 22.3196 21.4897 22.6487 21.7135C22.6563 21.693 22.6662 21.6746 22.6739 21.6536H24.1977C24.0869 21.7765 23.9717 21.8953 23.851 22.0085C23.7478 22.1043 23.6403 22.195 23.5307 22.283C23.8214 22.4593 24.1034 22.6195 24.3732 22.761C25.7105 21.5824 26.5464 19.9132 26.5464 18.0611C26.5453 14.4905 23.4462 11.5962 19.623 11.5962C17.6385 11.5962 15.8515 12.3768 14.5898 13.6245C14.7413 13.8775 14.9135 14.1408 15.1023 14.4123ZM24.7111 20.9929H22.8999C23.1335 20.2062 23.275 19.3262 23.3025 18.3915H25.5898C25.5305 19.3432 25.2168 20.2287 24.7111 20.9929ZM24.7099 15.1283C25.2168 15.8925 25.5305 16.7786 25.5897 17.7303H23.3003C23.2728 16.7965 23.1357 15.9146 22.902 15.1283H24.7099ZM23.851 14.1131C23.9717 14.2263 24.0869 14.3446 24.1966 14.4676H22.6728C22.5587 14.1782 22.4336 13.9027 22.2944 13.6496C22.1298 13.3526 21.9466 13.0822 21.7469 12.8419C22.5433 13.1246 23.2575 13.561 23.851 14.1131ZM19.9763 12.4884C20.075 12.4941 20.1726 12.5013 20.2703 12.511C20.4129 12.5745 20.5544 12.6585 20.6959 12.766C21.1567 13.1159 21.5868 13.7064 21.918 14.4675H19.9762V12.4884H19.9763ZM19.9763 15.1283H22.1649C22.4128 15.8951 22.5653 16.7822 22.5949 17.7303H19.9763V15.1283ZM18.5502 12.766C18.6917 12.6585 18.8332 12.5745 18.9758 12.511C19.0723 12.5008 19.17 12.4941 19.2687 12.4884V14.4675H17.3314C17.4104 14.2872 17.4916 14.1131 17.5805 13.9533C17.8645 13.438 18.2002 13.0334 18.5502 12.766Z" fill="#4B4B4B"/>
<path id="Vector_5" d="M26.6611 21.3373C26.4943 21.6477 26.3056 21.9463 26.095 22.2295C26.2014 22.4359 26.2913 22.6296 26.3615 22.8078C26.5063 23.1689 26.571 23.469 26.57 23.6703C26.57 23.765 26.5557 23.8373 26.5381 23.8854C26.5206 23.9341 26.5019 23.9593 26.48 23.9802C26.458 23.9997 26.4317 24.0171 26.3791 24.0345C26.3275 24.0509 26.2508 24.0633 26.1486 24.0633C25.9457 24.0643 25.6474 24.0105 25.2886 23.8912C24.9309 23.7723 24.5129 23.591 24.0544 23.3528C22.4834 22.5374 20.4419 21.0561 18.4289 19.1754C16.4158 17.2961 14.8284 15.3897 13.9552 13.9223C13.7006 13.4941 13.5065 13.1043 13.3793 12.7693C13.2509 12.4354 13.1939 12.1572 13.1949 11.9672C13.1949 11.872 13.2081 11.8002 13.2256 11.7521C13.2443 11.7035 13.2629 11.6788 13.2837 11.6584C13.3068 11.6374 13.3331 11.62 13.3858 11.6035C13.4374 11.5872 13.5142 11.5739 13.6161 11.5739C13.8311 11.5729 14.1526 11.6333 14.5388 11.7674C14.7308 11.834 14.9392 11.9181 15.1608 12.0179C15.4647 11.8213 15.784 11.645 16.1164 11.4888C15.6721 11.2609 15.253 11.0744 14.8657 10.9413C14.4138 10.7856 14.0013 10.6939 13.6162 10.6924C13.4331 10.6929 13.2542 10.7144 13.083 10.7682C12.9119 10.8221 12.7485 10.9111 12.6168 11.0351C12.4841 11.158 12.3887 11.3101 12.3316 11.4695C12.2746 11.6293 12.2515 11.7962 12.2505 11.9673C12.2516 12.3074 12.3393 12.6685 12.4897 13.065C12.64 13.461 12.856 13.8901 13.1303 14.3505C14.0695 15.924 15.6974 17.8703 17.762 19.7988C19.8266 21.7267 21.911 23.2469 23.596 24.1237C24.0896 24.3799 24.5493 24.5811 24.9738 24.722C25.3984 24.8619 25.7845 24.9432 26.1487 24.9448C26.3319 24.9448 26.5108 24.9233 26.6819 24.8695C26.852 24.8162 27.0154 24.7271 27.1471 24.6038C27.2798 24.4803 27.3753 24.3277 27.4323 24.1683C27.4904 24.008 27.5134 23.841 27.5134 23.6705C27.5123 23.3104 27.4136 22.9252 27.2469 22.5022C27.1032 22.1414 26.9046 21.7512 26.6611 21.3373Z" fill="#4B4B4B"/>
</g>
</g>
</svg>
