<svg xmlns="http://www.w3.org/2000/svg" width="11" height="10" viewBox="0 0 11 10" fill="none">
  <path d="M10.4026 2.03448C10.3048 1.91937 10.154 1.87702 10.0171 1.92625L3.09893 4.40832C2.89869 4.48072 2.73643 4.6427 2.65412 4.85374L1.52893 7.73508L1.47744 3.69721L8.01988 1.3145L8.00621 0.235983C8.00524 0.159427 7.97055 0.0881114 7.91291 0.043786C7.85529 -0.00056059 7.78197 -0.011764 7.71518 0.0126585L4.07736 1.34435C3.99824 1.37351 3.91078 1.35161 3.85147 1.28734L3.16293 0.54329C3.10395 0.479762 3.01682 0.457313 2.93801 0.485915L0.650959 1.31089C0.559826 1.34365 0.498693 1.43686 0.500021 1.54128L0.60465 9.76414C0.605666 9.84017 0.639963 9.91127 0.697287 9.95562C0.754416 9.99979 0.827716 10.0119 0.894533 9.98783L8.51867 7.25109C8.57865 7.22919 8.62729 7.18069 8.65213 7.11733L10.4709 2.46085C10.5272 2.31645 10.5005 2.14974 10.4026 2.03448Z" fill="#333"/>
</svg>