<svg width="35" height="13" viewBox="0 0 35 13" fill="none" xmlns="http://www.w3.org/2000/svg">
<path d="M0.376 12.45V0.52995H3.288L6.248 6.24195L7.416 8.88195H7.496C7.352 7.61795 7.112 5.90595 7.112 4.48195V0.52995H9.832V12.45H6.92L3.976 6.70595L2.808 4.09795H2.728C2.856 5.42595 3.096 7.05795 3.096 8.49795V12.45H0.376ZM11.9547 12.45V0.52995H19.5068V2.91395H14.8187V5.12195H18.8027V7.52195H14.8187V10.05H19.6827V12.45H11.9547ZM22.4169 12.45L20.2569 0.52995H23.1689L23.9209 5.96995C24.0809 7.21795 24.2409 8.46595 24.4009 9.74595H24.4649C24.6889 8.46595 24.9289 7.20195 25.1689 5.96995L26.3849 0.52995H28.8009L30.0329 5.96995C30.2729 7.18595 30.4809 8.46595 30.7209 9.74595H30.8009C30.9449 8.46595 31.1049 7.20195 31.2489 5.96995L32.0329 0.52995H34.7369L32.6729 12.45H29.0729L28.0009 7.26595C27.8089 6.35395 27.6489 5.39395 27.5369 4.49795H27.4729C27.3129 5.39395 27.1689 6.35395 26.9929 7.26595L25.9529 12.45H22.4169Z" fill="#333"/>
</svg>
