<svg width="40" height="40" viewBox="0 0 40 40" fill="none" xmlns="http://www.w3.org/2000/svg">
<g id="&#227;&#131;&#175;&#227;&#131;&#188;&#227;&#131;&#136;&#227;&#130;&#153;&#227;&#131;&#149;&#227;&#130;&#154;&#227;&#131;&#172;&#227;&#130;&#185;&#227;&#129;&#174;&#227;&#130;&#162;&#227;&#130;&#164;&#227;&#130;&#179;&#227;&#131;&#179; 1" clip-path="url(#clip0_399_22)">
<g id="&#227;&#130;&#162;&#227;&#130;&#164;&#227;&#130;&#179;&#227;&#131;&#179; WordPress">
<path id="Vector" d="M19.8338 0C8.8941 0.000625 0.00193687 8.96883 0 19.9997C0.00193687 31.0299 8.8941 39.998 19.8338 40C30.7723 39.998 39.6658 31.0299 39.6671 19.9997C39.6658 8.96883 30.7723 0.000625 19.8338 0ZM32.5963 32.8688C29.3226 36.1688 24.8135 38.2089 19.8338 38.2095C14.8535 38.2089 10.3439 36.1688 7.07127 32.8688C3.79874 29.5687 1.77626 25.0206 1.77557 19.9997C1.77619 14.9781 3.79874 10.4313 7.07127 7.13008C10.3439 3.83125 14.8535 1.79117 19.8338 1.79047C24.8136 1.79109 29.3226 3.83125 32.5963 7.13C35.8676 10.4312 37.8908 14.9774 37.8914 19.9996C37.8908 25.0206 35.8677 29.5687 32.5963 32.8688Z" fill="#4B4B4B"/>
<path id="Vector_2" d="M5.58073 13.5828H5.46878C4.60564 15.5451 4.12305 17.7144 4.12305 19.9997C4.12305 26.2354 7.69533 31.6264 12.8884 34.2121L5.58143 13.5828H5.58073Z" fill="#4B4B4B"/>
<path id="Vector_3" d="M28.756 14.2494C27.4015 12.3391 27.6024 8.43393 30.0933 8.00611C27.34 5.60986 23.7558 4.15674 19.834 4.15674C14.264 4.15674 9.37442 7.08111 6.58447 11.4893H12.3354V13.5827H10.0175L15.3841 28.7301L19.1486 18.5829L17.3761 13.5826H14.6949V11.4892H24.3192V13.5826H21.8123L27.2243 28.8617L29.967 21.4733C30.4533 19.4817 30.169 16.2474 28.756 14.2494Z" fill="#4B4B4B"/>
<path id="Vector_4" d="M34.4385 14.1624C34.4323 14.2225 34.4261 14.2834 34.4173 14.3424C34.0373 16.9142 31.6752 22.5554 31.6752 22.5554L28.2552 31.7738L27.4922 33.8321C32.2959 31.1223 35.5448 25.9457 35.5448 19.9998C35.5449 17.9371 35.1499 15.9692 34.4385 14.1624Z" fill="#4B4B4B"/>
<path id="Vector_5" d="M16.4137 31.6377L15.1226 35.1172C16.6102 35.5887 18.1918 35.8427 19.8336 35.8427C21.628 35.8427 23.3501 35.5361 24.9564 34.9766L20.1782 21.488L16.4137 31.6377Z" fill="#4B4B4B"/>
</g>
</g>
<defs>
<clipPath id="clip0_399_22">
<rect width="39.6671" height="40" fill="white"/>
</clipPath>
</defs>
</svg>
