<svg width="40" height="40" viewBox="0 0 40 40" fill="none" xmlns="http://www.w3.org/2000/svg">
<g id="WEB&#227;&#131;&#134;&#227;&#130;&#153;&#227;&#130;&#181;&#227;&#130;&#153;&#227;&#130;&#164;&#227;&#131;&#179;&#239;&#188;&#136;&#227;&#131;&#149;&#227;&#130;&#153;&#227;&#131;&#169;&#227;&#130;&#166;&#227;&#130;&#181;&#227;&#130;&#153;&#239;&#188;&#137;&#227;&#129;&#174;&#227;&#130;&#162;&#227;&#130;&#164;&#227;&#130;&#179;&#227;&#131;&#179; 2 1" clip-path="url(#clip0_399_29)">
<g id="Group">
<path id="Vector" d="M5.14033 13.8108V13.8111H5.12793V24.4784H34.5332V13.8111H5.22989L5.14033 13.8108ZM9.81848 17.4695C9.81848 16.5284 10.5756 15.7645 11.5093 15.7645C12.4426 15.7645 13.1941 16.5284 13.1941 17.4695C13.1941 18.4049 12.4426 19.1684 11.5093 19.1684C10.5756 19.1684 9.81848 18.4049 9.81848 17.4695ZM19.4471 21.9501L19.4504 21.9449L19.4577 21.9566L23.1562 15.9421C23.7315 15.0129 25.1696 15.0129 25.745 15.9421L28.7012 20.7477L30.2637 23.3006H20.2854L20.2972 23.3182H15.8636L13.5736 23.3115L15.6302 19.9735C16.2113 19.0381 17.6555 19.0381 18.2369 19.9735L19.0767 21.3377L19.4471 21.9501Z" fill="#4B4B4B"/>
<path id="Vector_2" d="M38.1905 40C38.7483 40 39.2001 39.5444 39.2062 38.9816V0H0.460938V38.9816C0.460938 39.5444 0.91277 40 1.47051 40H38.1905ZM3.73401 2.96016C3.74339 2.91961 3.75462 2.87898 3.77182 2.8418C3.77182 2.8357 3.77182 2.8357 3.77182 2.82984C3.88927 2.55156 4.16524 2.35625 4.48211 2.35625C4.79929 2.35625 5.06921 2.55156 5.18666 2.82984C5.18666 2.83562 5.18666 2.83562 5.18666 2.8418C5.20208 2.87508 5.21122 2.91133 5.22029 2.94766C5.22633 2.97055 5.23121 2.99437 5.23478 3.01875C5.2402 3.05594 5.24539 3.09352 5.24539 3.13164C5.24539 3.55805 4.90497 3.90133 4.48219 3.90133C4.05972 3.90133 3.71317 3.55805 3.71317 3.13164C3.71317 3.09047 3.71828 3.04961 3.72464 3.00898C3.72696 2.99258 3.73029 2.97641 3.73401 2.96016ZM7.092 2.95984C7.10145 2.9193 7.1123 2.87898 7.12988 2.8418C7.12988 2.8357 7.12988 2.8357 7.12988 2.82984C7.24726 2.55156 7.51726 2.35625 7.83413 2.35625C8.15131 2.35625 8.42123 2.55156 8.53868 2.82984C8.53868 2.83562 8.53868 2.83562 8.53868 2.8418C8.5541 2.87508 8.56324 2.91133 8.57262 2.94766C8.57835 2.97055 8.58323 2.99406 8.58687 3.01844C8.5923 3.05594 8.59741 3.09352 8.59741 3.13164C8.59741 3.55805 8.25699 3.90133 7.83421 3.90133C7.41174 3.90133 7.07124 3.55805 7.07124 3.13164C7.07124 3.09047 7.07635 3.04992 7.08247 3.0093C7.08503 2.99289 7.08836 2.97641 7.092 2.95984ZM10.4439 2.96016C10.4534 2.91961 10.4646 2.87898 10.4818 2.8418C10.4818 2.8357 10.4818 2.8357 10.4818 2.82984C10.5992 2.55156 10.8692 2.35625 11.1864 2.35625C11.5033 2.35625 11.7732 2.55156 11.8906 2.82984C11.8906 2.83562 11.8906 2.83562 11.8906 2.8418C11.9318 2.93062 11.9494 3.03102 11.9494 3.13164C11.9494 3.55805 11.6089 3.90133 11.1865 3.90133C10.7637 3.90133 10.4232 3.55805 10.4232 3.13164C10.4232 3.09047 10.4283 3.04961 10.4347 3.00898C10.437 2.99258 10.4404 2.97641 10.4439 2.96016ZM1.63483 38.8162V6.02664H38.032V38.8162H1.63483Z" fill="#4B4B4B"/>
<path id="Vector_3" d="M29.3203 27.4619H5.12793V29.0781H29.3203V27.4619Z" fill="#4B4B4B"/>
<path id="Vector_4" d="M25.886 31.2268H5.12793V32.8433H25.886V31.2268Z" fill="#4B4B4B"/>
<path id="Vector_5" d="M30.2709 11.017C30.9637 11.017 31.5271 10.4487 31.5271 9.75019C31.5271 9.05167 30.9636 8.48315 30.2709 8.48315C29.5781 8.48315 29.0146 9.05167 29.0146 9.75019C29.0146 10.4487 29.5781 11.017 30.2709 11.017Z" fill="#4B4B4B"/>
<path id="Vector_6" d="M34.597 8.48291C33.9043 8.48291 33.3408 9.05143 33.3408 9.74994C33.3408 10.4485 33.9044 11.0167 34.597 11.0167C35.2898 11.0167 35.8532 10.4485 35.8532 9.74994C35.8532 9.05143 35.2898 8.48291 34.597 8.48291Z" fill="#4B4B4B"/>
<path id="Vector_7" d="M11.3447 8.48291H5.12793V10.5904H11.3447V8.48291Z" fill="#4B4B4B"/>
</g>
</g>
<defs>
<clipPath id="clip0_399_29">
<rect width="39.6671" height="40" fill="white"/>
</clipPath>
</defs>
</svg>
