<svg width="20" height="21" viewBox="0 0 20 21" fill="none" xmlns="http://www.w3.org/2000/svg">
  <g clip-path="url(#clip-archive-icon)">
    <g>
      <path d="M16.7871 2.66433C16.5668 2.50808 16.2836 2.46781 16.0284 2.55753L6.54113 5.87784C5.34484 5.82109 4.53004 5.49331 3.96852 5.12773C3.79945 5.01784 3.76281 4.95316 3.76281 4.95316C3.66149 4.85183 3.62242 4.71144 3.65113 4.56679C3.68043 4.42214 3.78359 4.30374 3.92274 4.25491L12.4133 1.2837C12.5409 1.23855 12.6825 1.25866 12.7923 1.33679C12.8021 1.34413 12.8107 1.3539 12.8198 1.3612L13.4411 1.13659C13.4027 0.923587 13.2873 0.730696 13.1073 0.603743C12.8869 0.446868 12.6037 0.407219 12.3486 0.496321L3.41977 3.62132C3.08527 3.73851 2.86129 4.05468 2.86129 4.40866V4.62656V18.3887C2.86129 18.3887 3.44969 20.3028 6.54109 20.4499L16.0211 17.132C16.69 16.8976 17.1386 16.266 17.1386 15.5567V3.34488C17.1387 3.07448 17.0075 2.82058 16.7871 2.66433Z" fill="#333"/>
      <path d="M4.82484 4.60046L5.20141 4.77992L13.7799 1.77699L13.4027 1.59753L4.82484 4.60046Z" fill="#4B4B4B"/>
      <path d="M6.23719 5.26816L14.8047 2.26891L14.4299 2.08887L5.86059 5.08871L6.23719 5.26816Z" fill="#4B4B4B"/>
    </g>
  </g>
  <defs>
    <clipPath id="clip-archive-icon">
      <rect width="20" height="20" fill="white" transform="translate(0 0.449951)"/>
    </clipPath>
  </defs>
</svg>
