<svg width="20" height="21" viewBox="0 0 20 21" fill="none" xmlns="http://www.w3.org/2000/svg">
  <path d="M19.4145 10.5593L10.2382 1.38249C9.88753 1.03272 9.42029 0.82479 8.92641 0.800025L2.09935 0.452563C1.5348 0.423657 0.984907 0.635728 0.584662 1.03549C0.185354 1.43526 -0.0266826 1.98561 0.00269322 2.5501L0.349695 9.37656C0.374461 9.8709 0.581927 10.3381 0.931702 10.6879L10.1088 19.8648C10.8891 20.645 12.155 20.645 12.9353 19.8648L19.4145 13.3853C20.1957 12.6046 20.1947 11.3392 19.4145 10.5593ZM6.03844 6.48863C5.39584 7.1312 4.35488 7.1312 3.71228 6.48863C3.06969 5.84605 3.06969 4.80464 3.71228 4.16206C4.35488 3.51948 5.39584 3.51948 6.03844 4.16206C6.68104 4.80464 6.68104 5.84605 6.03844 6.48863Z" fill="#333333"/>
</svg>
